<?xml version="1.0" ?>
<svg width="400" height="500" viewBox="100 -200 500 500" xmlns="http://www.w3.org/2000/svg">
<path class="stroke" d="M 75.8974,163.397 Q 150.897,120.096 175.897,163.397 Q 219.199,138.397 175.897,63.3975 Q 219.199,-11.6025 262.5,13.3975 Q 237.5,56.6988 312.5,100 Q 312.5,186.603 262.5,186.603 Q 262.5,236.603 349.103,236.603 Q 392.404,311.603 349.103,336.603 Q 305.801,361.603 349.103,436.603 Q 305.801,511.603 262.5,486.603 Q 287.5,443.301 212.5,400 Q 137.5,443.301 112.5,400 Q 155.801,375 112.5,300 Q 25.8975,300 25.8975,250 Q 75.8975,250 75.8974,163.397" stroke="#000000" stroke-width="12" transform="rotate(-60)" fill="#FFFFFF"/>
</svg>
