<?xml version="1.0" encoding="UTF-8" standalone="no"?>
<svg
   xmlns:dc="http://purl.org/dc/elements/1.1/"
   xmlns:cc="http://web.resource.org/cc/"
   xmlns:rdf="http://www.w3.org/1999/02/22-rdf-syntax-ns#"
   xmlns:svg="http://www.w3.org/2000/svg"
   xmlns="http://www.w3.org/2000/svg"
   xmlns:xlink="http://www.w3.org/1999/xlink"
   width="2000" height="1400" viewBox="-5 -5 10 10">
  <title>Penrose tiling generator by Incnis Mrsi, 5 iterations, sun</title>
  <defs>
   <style type="text/css">
    <![CDATA[
	polygon { stroke:none; fill:#000000; fill-opacity:0}
	polyline { stroke:#000000; stroke-opacity:1; stroke-linecap:butt; fill:none; }
	path { stroke-width:0.06; stroke:#0000FF; stroke-opacity:0.8; stroke-linecap:butt; fill:none; }
	.red { stroke-width:0.06; stroke:#FF0000}
    ]]>
   </style>
  </defs>

 <g id="fifth">
  <g id="A5">
   <g id="T5">
    <g id="A4wrap" transform="matrix(-1,0,0,1,11.090169943749475,0)">
  <g id="A4">
   <g id="T4">
    <g id="A3wrap" transform="matrix(-1,0,0,1,6.854101966249685,0)">
     <g id="A3">
      <g id="T3">
       <g id="A2wrap" transform="matrix(-1,0,0,1,4.236067977499790,0)">
        <g id="A2">
         <g id="T2">
          <g id="A1wrap" transform="matrix(-1,0,0,1,2.618033988749895,0)">
           <g id="A1">
            <g id="T1">
             <g id="A0wrap" transform="matrix(-1,0,0,1,1.618033988749895,0)">
              <g id="A0">
               <path             d="M0.618033988749895,0 A0.618033988749895,0.618033988749895,0,0,0,0.5,-0.3632712640026804"><title>more straight</title></path>
               <path class="red" d="M0.5,-0.3632712640026804 A0.381966011250105,0.381966011250105,0,0,0,0.9270509831248423,-0.2245139882897927"><title>more length</title></path>
               <polyline points="0,-0.015 1,-0.015 0.8090169943749474,-0.5877852522924731" stroke-width='0.03'/>
             </g></g>
             <g id="T0">
              <polyline points="0,0 0.8090169943749474,-0.5877852522924731" stroke-width='0.04'/>
              <path class="red" d="M0.6909830056250526,-0.2245139882897927 A0.236067977499790,0.236067977499790,0,0,0,0.381966011250105,0"><title>more length</title></path>
              <path             d="M0.381966011250105,0 A0.381966011250105,0.381966011250105,0,0,0,0.3090169943749474,-0.2245139882897927"><title>more straight</title></path>
             </g>
            </g>
            <use xlink:href="#A0" transform="translate(1.618033988749895,0) rotate(-108)"/>
          </g></g>
          <use xlink:href="#T1" transform="rotate(144) translate(-1.618033988749895,0)"/>
         </g>
         <use xlink:href="#A1" transform="translate(2.618033988749895,0) rotate(-108)"/>
       </g></g>
       <use xlink:href="#T2" transform="rotate(144) translate(-2.618033988749895,0)"/>
      </g>
      <use xlink:href="#A2" transform="translate(4.236067977499790,0) rotate(-108)"/>
    </g></g>
    <use xlink:href="#T3" transform="rotate(144) translate(-4.236067977499790,0)"/>
   </g>
   <use xlink:href="#A3" transform="translate(6.854101966249685,0) rotate(-108)"/>
    </g></g>
    <use xlink:href="#T4" transform="rotate(144) translate(-6.854101966249685,0)"/>
   </g>
   <use xlink:href="#A4" transform="translate(11.090169943749475,0) rotate(-108)"/>
  </g>
  <use id="mirror" xlink:href="#A5" transform="scale(1,-1)"/>
 </g>

 <use xlink:href="#fifth" transform="rotate(72)"/>
 <use xlink:href="#fifth" transform="rotate(144)"/>
 <use xlink:href="#fifth" transform="rotate(216)"/>
 <use xlink:href="#fifth" transform="rotate(288)"/>

</svg>
