<?xml version="1.0" encoding="UTF-8" standalone="no"?>
<svg xmlns="http://www.w3.org/2000/svg" version="1.0" width="1000" height="700" viewBox='100 100 300 300'>
<!-- X Coordinate transform: fx(x)=(x+55.5)*0.90009004-->
<!-- Y Coordinate transform: fy(y)=(1010.23334-y)*0.90009004 -->
<!-- Flac geometry view -->
<g style="opacity:1.0;fill:#000000;fill-opacity:0;stroke:#000000;stroke-width:2.5;stroke-opacity:0.80;">  <!-- 5-sided blocks -->
<path d="M 860.036,17.539 860.036,43.522 815.032,69.506 815.032,17.539 837.534,4.547 Z" />
<path d="M 927.543,30.53 882.538,56.514 860.036,43.522 860.036,17.539 882.538,4.547 Z" />
<path d="M 882.538,82.497 860.036,95.489 815.032,69.506 860.036,43.522 882.538,56.514 Z" />
<path d="M 927.543,82.497 905.041,95.489 882.538,82.497 882.538,56.514 927.543,30.53 Z" />
<path d="M 972.547,56.514 927.543,30.53 972.547,4.547 995.05,17.539 995.05,43.522 Z" />
<path d="M 522.502,498.231 477.498,472.248 477.498,446.264 500,433.273 522.502,446.264 Z" />
<path d="M 477.498,472.248 454.996,485.239 432.493,472.248 432.493,420.281 477.498,446.264 Z" />
<path d="M 905.041,874.99 927.543,861.998 972.547,887.981 927.543,913.965 905.041,900.973 Z" />
<path d="M 522.502,498.231 522.502,446.264 545.005,433.273 567.507,446.264 567.507,472.248 Z" />
<path d="M 522.502,446.264 500,433.273 500,407.289 545.005,381.306 545.005,433.273 Z" />
<path d="M 927.543,861.998 927.543,836.015 950.045,823.023 972.547,836.015 972.547,887.981 Z" />
<path d="M 522.502,498.231 477.498,524.214 454.996,511.223 454.996,485.239 477.498,472.248 Z" />
<path d="M 454.996,511.223 409.991,537.206 409.991,485.239 432.493,472.248 454.996,485.239 Z" />
<path d="M 590.009,485.239 635.014,459.256 635.014,511.223 612.511,524.214 590.009,511.223 Z" />
<path d="M 522.502,498.231 567.507,472.248 590.009,485.239 590.009,511.223 567.507,524.214 Z" />
<path d="M 27.453,82.497 27.453,56.514 49.955,43.522 72.457,56.514 72.457,108.481 Z" />
<path d="M 72.457,56.514 94.959,43.522 117.462,56.514 117.462,82.497 72.457,108.481 Z" />
<path d="M 27.453,134.464 72.457,108.481 72.457,160.447 49.955,173.439 27.453,160.447 Z" />
<path d="M 72.457,108.481 117.462,134.464 117.462,160.447 94.959,173.439 72.457,160.447 Z" />
<path d="M 72.457,160.447 94.959,173.439 94.959,199.422 49.955,225.406 49.955,173.439 Z" />
<path d="M 27.453,160.447 49.955,173.439 49.955,225.406 4.95,199.422 4.95,173.439 Z" />
<path d="M 49.955,225.406 49.955,277.372 27.453,290.364 4.95,277.372 4.95,251.389 Z" />
<path d="M 49.955,225.406 94.959,251.389 94.959,277.372 72.457,290.364 49.955,277.372 Z" />
<path d="M 49.955,277.372 72.457,290.364 72.457,316.347 27.453,342.331 27.453,290.364 Z" />
<path d="M 27.453,342.331 72.457,368.314 72.457,394.298 49.955,407.289 27.453,394.298 Z" />
<path d="M 49.955,407.289 72.457,394.298 117.462,420.281 72.457,446.264 49.955,433.273 Z" />
<path d="M 27.453,82.497 72.457,108.481 27.453,134.464 4.95,121.472 4.95,95.489 Z" />
<path d="M 117.462,82.497 139.964,95.489 139.964,121.472 117.462,134.464 72.457,108.481 Z" />
<path d="M 139.964,121.472 162.466,134.464 162.466,186.431 117.462,160.447 117.462,134.464 Z" />
<path d="M 139.964,95.489 184.969,69.506 184.969,121.472 162.466,134.464 139.964,121.472 Z" />
<path d="M 117.462,56.514 139.964,43.522 184.969,69.506 139.964,95.489 117.462,82.497 Z" />
<path d="M 184.969,17.539 184.969,69.506 139.964,43.522 139.964,17.539 162.466,4.547 Z" />
<path d="M 972.547,56.514 972.547,82.497 950.045,95.489 927.543,82.497 927.543,30.53 Z" />
<path d="M 27.453,836.015 4.95,823.023 4.95,797.04 49.955,771.056 49.955,823.023 Z" />
<path d="M 567.507,472.248 567.507,446.264 590.009,433.273 635.014,459.256 590.009,485.239 Z" />
<path d="M 545.005,433.273 545.005,381.306 590.009,407.289 590.009,433.273 567.507,446.264 Z" />
<path d="M 27.453,836.015 49.955,823.023 72.457,836.015 72.457,861.998 27.453,887.981 Z" />
<path d="M 432.493,56.514 432.493,82.497 387.489,108.481 387.489,56.514 409.991,43.522 Z" />
<path d="M 454.996,43.522 500,69.506 454.996,95.489 432.493,82.497 432.493,56.514 Z" />
<path d="M 454.996,95.489 454.996,121.472 432.493,134.464 387.489,108.481 432.493,82.497 Z" />
<path d="M 500,69.506 500,121.472 477.498,134.464 454.996,121.472 454.996,95.489 Z" />
<path d="M 477.498,186.431 432.493,160.447 432.493,134.464 454.996,121.472 477.498,134.464 Z" />
<path d="M 477.498,186.431 477.498,134.464 500,121.472 522.502,134.464 522.502,160.447 Z" />
<path d="M 477.498,186.431 477.498,238.397 454.996,251.389 432.493,238.397 432.493,212.414 Z" />
<path d="M 522.502,212.414 522.502,238.397 500,251.389 477.498,238.397 477.498,186.431 Z" />
<path d="M 454.996,303.356 454.996,251.389 477.498,238.397 500,251.389 500,277.372 Z" />
<path d="M 500,277.372 500,251.389 522.502,238.397 567.507,264.381 522.502,290.364 Z" />
<path d="M 454.996,303.356 500,277.372 522.502,290.364 522.502,316.347 500,329.339 Z" />
<path d="M 545.005,329.339 522.502,316.347 522.502,290.364 567.507,264.381 567.507,316.347 Z" />
<path d="M 545.005,381.306 500,355.322 500,329.339 522.502,316.347 545.005,329.339 Z" />
<path d="M 545.005,381.306 545.005,329.339 567.507,316.347 590.009,329.339 590.009,355.322 Z" />
<path d="M 522.502,498.231 522.502,550.198 500,563.189 477.498,550.198 477.498,524.214 Z" />
<path d="M 477.498,524.214 477.498,550.198 454.996,563.189 409.991,537.206 454.996,511.223 Z" />
<path d="M 409.991,537.206 364.987,563.189 342.484,550.198 342.484,524.214 364.987,511.223 Z" />
<path d="M 409.991,537.206 409.991,589.173 387.489,602.164 364.987,589.173 364.987,563.189 Z" />
<path d="M 364.987,563.189 364.987,589.173 342.484,602.164 297.48,576.181 342.484,550.198 Z" />
<path d="M 342.484,550.198 297.48,576.181 297.48,524.214 319.982,511.223 342.484,524.214 Z" />
<path d="M 252.475,550.198 297.48,576.181 252.475,602.164 229.973,589.173 229.973,563.189 Z" />
<path d="M 297.48,628.148 274.978,641.139 252.475,628.148 252.475,602.164 297.48,576.181 Z" />
<path d="M 184.969,615.156 229.973,589.173 252.475,602.164 252.475,628.148 229.973,641.139 Z" />
<path d="M 184.969,563.189 207.471,550.198 229.973,563.189 229.973,589.173 184.969,615.156 Z" />
<path d="M 117.462,602.164 139.964,589.173 184.969,615.156 139.964,641.139 117.462,628.148 Z" />
<path d="M 139.964,667.123 139.964,641.139 184.969,615.156 184.969,667.123 162.466,680.115 Z" />
<path d="M 72.457,654.131 117.462,628.148 139.964,641.139 139.964,667.123 117.462,680.115 Z" />
<path d="M 117.462,680.115 139.964,667.123 162.466,680.115 162.466,732.081 117.462,706.098 Z" />
<path d="M 72.457,706.098 72.457,654.131 117.462,680.115 117.462,706.098 94.959,719.09 Z" />
<path d="M 94.959,719.09 117.462,706.098 162.466,732.081 117.462,758.065 94.959,745.073 Z" />
<path d="M 49.955,719.09 72.457,706.098 94.959,719.09 94.959,745.073 49.955,771.056 Z" />
<path d="M 49.955,771.056 94.959,745.073 117.462,758.065 117.462,784.048 94.959,797.04 Z" />
<path d="M 950.045,641.139 927.543,628.148 927.543,576.181 972.547,602.164 972.547,628.148 Z" />
<path d="M 950.045,667.123 905.041,693.106 905.041,641.139 927.543,628.148 950.045,641.139 Z" />
<path d="M 905.041,641.139 882.538,628.148 882.538,602.164 927.543,576.181 927.543,628.148 Z" />
<path d="M 905.041,693.106 860.036,667.123 860.036,641.139 882.538,628.148 905.041,641.139 Z" />
<path d="M 882.538,628.148 860.036,641.139 815.032,615.156 860.036,589.173 882.538,602.164 Z" />
<path d="M 837.534,680.115 815.032,667.123 815.032,615.156 860.036,641.139 860.036,667.123 Z" />
<path d="M 815.032,615.156 770.027,589.173 770.027,563.189 792.529,550.198 815.032,563.189 Z" />
<path d="M 770.027,641.139 747.525,628.148 747.525,602.164 770.027,589.173 815.032,615.156 Z" />
<path d="M 747.525,602.164 725.023,589.173 725.023,537.206 770.027,563.189 770.027,589.173 Z" />
<path d="M 747.525,628.148 702.52,654.131 702.52,602.164 725.023,589.173 747.525,602.164 Z" />
<path d="M 725.023,537.206 725.023,589.173 702.52,602.164 680.018,589.173 680.018,563.189 Z" />
<path d="M 657.516,602.164 680.018,589.173 702.52,602.164 702.52,654.131 657.516,628.148 Z" />
<path d="M 612.511,576.181 657.516,550.198 680.018,563.189 680.018,589.173 657.516,602.164 Z" />
<path d="M 612.511,576.181 657.516,602.164 657.516,628.148 635.014,641.139 612.511,628.148 Z" />
<path d="M 567.507,524.214 590.009,511.223 612.511,524.214 612.511,576.181 567.507,550.198 Z" />
<path d="M 567.507,550.198 612.511,576.181 567.507,602.164 545.005,589.173 545.005,563.189 Z" />
<path d="M 522.502,498.231 567.507,524.214 567.507,550.198 545.005,563.189 522.502,550.198 Z" />
<path d="M 522.502,550.198 545.005,563.189 545.005,589.173 500,615.156 500,563.189 Z" />
<path d="M 500,615.156 545.005,589.173 567.507,602.164 567.507,628.148 545.005,641.139 Z" />
<path d="M 500,615.156 454.996,641.139 432.493,628.148 432.493,602.164 454.996,589.173 Z" />
<path d="M 500,615.156 500,667.123 477.498,680.115 454.996,667.123 454.996,641.139 Z" />
<path d="M 454.996,641.139 454.996,667.123 432.493,680.115 387.489,654.131 432.493,628.148 Z" />
<path d="M 432.493,706.098 432.493,680.115 454.996,667.123 477.498,680.115 477.498,732.081 Z" />
<path d="M 409.991,719.09 387.489,706.098 387.489,654.131 432.493,680.115 432.493,706.098 Z" />
<path d="M 387.489,602.164 387.489,654.131 342.484,628.148 342.484,602.164 364.987,589.173 Z" />
<path d="M 319.982,641.139 342.484,628.148 387.489,654.131 342.484,680.115 319.982,667.123 Z" />
<path d="M 297.48,628.148 297.48,576.181 342.484,602.164 342.484,628.148 319.982,641.139 Z" />
<path d="M 297.48,628.148 319.982,641.139 319.982,667.123 274.978,693.106 274.978,641.139 Z" />
<path d="M 229.973,641.139 252.475,628.148 274.978,641.139 274.978,693.106 229.973,667.123 Z" />
<path d="M 184.969,667.123 184.969,615.156 229.973,641.139 229.973,667.123 207.471,680.115 Z" />
<path d="M 139.964,563.189 162.466,550.198 184.969,563.189 184.969,615.156 139.964,589.173 Z" />
<path d="M 94.959,589.173 94.959,537.206 139.964,563.189 139.964,589.173 117.462,602.164 Z" />
<path d="M 72.457,602.164 94.959,589.173 117.462,602.164 117.462,628.148 72.457,654.131 Z" />
<path d="M 49.955,589.173 49.955,563.189 94.959,537.206 94.959,589.173 72.457,602.164 Z" />
<path d="M 27.453,628.148 27.453,602.164 49.955,589.173 72.457,602.164 72.457,654.131 Z" />
<path d="M 27.453,706.098 27.453,680.115 72.457,654.131 72.457,706.098 49.955,719.09 Z" />
<path d="M 27.453,706.098 49.955,719.09 49.955,771.056 4.95,745.073 4.95,719.09 Z" />
<path d="M 49.955,823.023 49.955,771.056 94.959,797.04 94.959,823.023 72.457,836.015 Z" />
<path d="M 72.457,861.998 94.959,874.99 94.959,900.973 72.457,913.965 27.453,887.981 Z" />
<path d="M 72.457,836.015 94.959,823.023 139.964,849.006 94.959,874.99 72.457,861.998 Z" />
<path d="M 94.959,900.973 94.959,874.99 139.964,849.006 139.964,900.973 117.462,913.965 Z" />
<path d="M 184.969,874.99 139.964,849.006 184.969,823.023 207.471,836.015 207.471,861.998 Z" />
<path d="M 139.964,797.04 162.466,784.048 184.969,797.04 184.969,823.023 139.964,849.006 Z" />
<path d="M 184.969,797.04 207.471,784.048 252.475,810.031 207.471,836.015 184.969,823.023 Z" />
<path d="M 207.471,861.998 207.471,836.015 252.475,810.031 252.475,861.998 229.973,874.99 Z" />
<path d="M 815.032,17.539 815.032,69.506 770.027,43.522 770.027,17.539 792.529,4.547 Z" />
<path d="M 815.032,69.506 815.032,121.472 792.529,134.464 770.027,121.472 770.027,95.489 Z" />
<path d="M 860.036,121.472 837.534,134.464 815.032,121.472 815.032,69.506 860.036,95.489 Z" />
<path d="M 837.534,134.464 837.534,160.447 792.529,186.431 792.529,134.464 815.032,121.472 Z" />
<path d="M 905.041,147.456 860.036,173.439 837.534,160.447 837.534,134.464 860.036,121.472 Z" />
<path d="M 860.036,199.422 837.534,212.414 792.529,186.431 837.534,160.447 860.036,173.439 Z" />
<path d="M 905.041,199.422 882.538,212.414 860.036,199.422 860.036,173.439 905.041,147.456 Z" />
<path d="M 950.045,121.472 972.547,134.464 972.547,160.447 950.045,173.439 905.041,147.456 Z" />
<path d="M 950.045,95.489 950.045,121.472 905.041,147.456 905.041,95.489 927.543,82.497 Z" />
<path d="M 500,17.539 500,69.506 454.996,43.522 454.996,17.539 477.498,4.547 Z" />
<path d="M 545.005,17.539 545.005,43.522 500,69.506 500,17.539 522.502,4.547 Z" />
<path d="M 545.005,95.489 545.005,121.472 522.502,134.464 500,121.472 500,69.506 Z" />
<path d="M 545.005,121.472 590.009,147.456 545.005,173.439 522.502,160.447 522.502,134.464 Z" />
<path d="M 545.005,199.422 522.502,212.414 477.498,186.431 522.502,160.447 545.005,173.439 Z" />
<path d="M 545.005,199.422 545.005,173.439 590.009,147.456 590.009,199.422 567.507,212.414 Z" />
<path d="M 545.005,199.422 567.507,212.414 567.507,264.381 522.502,238.397 522.502,212.414 Z" />
<path d="M 567.507,212.414 590.009,199.422 612.511,212.414 612.511,238.397 567.507,264.381 Z" />
<path d="M 567.507,316.347 567.507,264.381 612.511,290.364 612.511,316.347 590.009,329.339 Z" />
<path d="M 590.009,355.322 590.009,329.339 612.511,316.347 657.516,342.331 612.511,368.314 Z" />
<path d="M 545.005,381.306 590.009,355.322 612.511,368.314 612.511,394.298 590.009,407.289 Z" />
<path d="M 612.511,368.314 657.516,342.331 657.516,394.298 635.014,407.289 612.511,394.298 Z" />
<path d="M 590.009,407.289 612.511,394.298 635.014,407.289 635.014,459.256 590.009,433.273 Z" />
<path d="M 635.014,459.256 680.018,485.239 680.018,511.223 657.516,524.214 635.014,511.223 Z" />
<path d="M 635.014,459.256 680.018,433.273 702.52,446.264 702.52,472.248 680.018,485.239 Z" />
<path d="M 680.018,485.239 702.52,472.248 725.023,485.239 725.023,537.206 680.018,511.223 Z" />
<path d="M 680.018,511.223 725.023,537.206 680.018,563.189 657.516,550.198 657.516,524.214 Z" />
<path d="M 792.529,550.198 770.027,563.189 725.023,537.206 770.027,511.223 792.529,524.214 Z" />
<path d="M 815.032,563.189 792.529,550.198 792.529,524.214 837.534,498.231 837.534,550.198 Z" />
<path d="M 860.036,589.173 815.032,615.156 815.032,563.189 837.534,550.198 860.036,563.189 Z" />
<path d="M 860.036,563.189 837.534,550.198 837.534,498.231 882.538,524.214 882.538,550.198 Z" />
<path d="M 882.538,446.264 882.538,472.248 837.534,498.231 837.534,446.264 860.036,433.273 Z" />
<path d="M 792.529,446.264 815.032,433.273 837.534,446.264 837.534,498.231 792.529,472.248 Z" />
<path d="M 860.036,433.273 837.534,446.264 815.032,433.273 815.032,407.289 860.036,381.306 Z" />
<path d="M 905.041,433.273 882.538,446.264 860.036,433.273 860.036,381.306 905.041,407.289 Z" />
<path d="M 905.041,329.339 905.041,355.322 860.036,381.306 860.036,329.339 882.538,316.347 Z" />
<path d="M 860.036,329.339 860.036,381.306 815.032,355.322 815.032,329.339 837.534,316.347 Z" />
<path d="M 882.538,316.347 860.036,329.339 837.534,316.347 837.534,290.364 882.538,264.381 Z" />
<path d="M 927.543,316.347 905.041,329.339 882.538,316.347 882.538,264.381 927.543,290.364 Z" />
<path d="M 927.543,212.414 927.543,238.397 882.538,264.381 882.538,212.414 905.041,199.422 Z" />
<path d="M 882.538,212.414 882.538,264.381 837.534,238.397 837.534,212.414 860.036,199.422 Z" />
<path d="M 950.045,173.439 950.045,199.422 927.543,212.414 905.041,199.422 905.041,147.456 Z" />
<path d="M 905.041,95.489 905.041,147.456 860.036,121.472 860.036,95.489 882.538,82.497 Z" />
<path d="M 477.498,446.264 432.493,420.281 477.498,394.298 500,407.289 500,433.273 Z" />
<path d="M 432.493,420.281 432.493,368.314 454.996,355.322 477.498,368.314 477.498,394.298 Z" />
<path d="M 882.538,861.998 860.036,874.99 837.534,861.998 837.534,836.015 882.538,810.031 Z" />
<path d="M 905.041,874.99 882.538,861.998 882.538,810.031 927.543,836.015 927.543,861.998 Z" />
<path d="M 432.493,420.281 432.493,472.248 409.991,485.239 387.489,472.248 387.489,446.264 Z" />
<path d="M 432.493,420.281 387.489,446.264 364.987,433.273 364.987,407.289 387.489,394.298 Z" />
<path d="M 950.045,823.023 927.543,836.015 882.538,810.031 927.543,784.048 950.045,797.04 Z" />
<path d="M 882.538,810.031 837.534,784.048 837.534,758.065 860.036,745.073 882.538,758.065 Z" />
<path d="M 837.534,836.015 815.032,823.023 815.032,797.04 837.534,784.048 882.538,810.031 Z" />
<path d="M 815.032,797.04 792.529,784.048 792.529,732.081 837.534,758.065 837.534,784.048 Z" />
<path d="M 860.036,745.073 837.534,758.065 792.529,732.081 837.534,706.098 860.036,719.09 Z" />
<path d="M 882.538,758.065 860.036,745.073 860.036,719.09 905.041,693.106 905.041,745.073 Z" />
<path d="M 860.036,719.09 837.534,706.098 837.534,680.115 860.036,667.123 905.041,693.106 Z" />
<path d="M 837.534,706.098 792.529,732.081 792.529,680.115 815.032,667.123 837.534,680.115 Z" />
<path d="M 477.498,394.298 477.498,368.314 500,355.322 545.005,381.306 500,407.289 Z" />
<path d="M 454.996,355.322 454.996,303.356 500,329.339 500,355.322 477.498,368.314 Z" />
<path d="M 184.969,17.539 207.471,4.547 229.973,17.539 229.973,43.522 184.969,69.506 Z" />
<path d="M 184.969,69.506 229.973,95.489 229.973,121.472 207.471,134.464 184.969,121.472 Z" />
<path d="M 184.969,121.472 207.471,134.464 207.471,160.447 162.466,186.431 162.466,134.464 Z" />
<path d="M 117.462,212.414 162.466,186.431 162.466,238.397 139.964,251.389 117.462,238.397 Z" />
<path d="M 162.466,186.431 207.471,212.414 207.471,238.397 184.969,251.389 162.466,238.397 Z" />
<path d="M 162.466,238.397 184.969,251.389 184.969,277.372 139.964,303.356 139.964,251.389 Z" />
<path d="M 117.462,238.397 139.964,251.389 139.964,303.356 94.959,277.372 94.959,251.389 Z" />
<path d="M 94.959,329.339 139.964,303.356 139.964,355.322 117.462,368.314 94.959,355.322 Z" />
<path d="M 139.964,303.356 184.969,329.339 184.969,355.322 162.466,368.314 139.964,355.322 Z" />
<path d="M 139.964,355.322 162.466,368.314 162.466,394.298 117.462,420.281 117.462,368.314 Z" />
<path d="M 94.959,355.322 117.462,368.314 117.462,420.281 72.457,394.298 72.457,368.314 Z" />
<path d="M 72.457,472.248 72.457,446.264 117.462,420.281 117.462,472.248 94.959,485.239 Z" />
<path d="M 117.462,472.248 117.462,420.281 162.466,446.264 162.466,472.248 139.964,485.239 Z" />
<path d="M 94.959,485.239 117.462,472.248 139.964,485.239 139.964,511.223 94.959,537.206 Z" />
<path d="M 207.471,498.231 162.466,524.214 139.964,511.223 139.964,485.239 162.466,472.248 Z" />
<path d="M 207.471,498.231 162.466,472.248 162.466,446.264 184.969,433.273 207.471,446.264 Z" />
<path d="M 207.471,498.231 252.475,524.214 252.475,550.198 229.973,563.189 207.471,550.198 Z" />
<path d="M 207.471,498.231 252.475,472.248 274.978,485.239 274.978,511.223 252.475,524.214 Z" />
<path d="M 252.475,524.214 274.978,511.223 297.48,524.214 297.48,576.181 252.475,550.198 Z" />
<path d="M 319.982,459.256 319.982,511.223 297.48,524.214 274.978,511.223 274.978,485.239 Z" />
<path d="M 364.987,511.223 342.484,524.214 319.982,511.223 319.982,459.256 364.987,485.239 Z" />
<path d="M 409.991,537.206 364.987,511.223 364.987,485.239 387.489,472.248 409.991,485.239 Z" />
<path d="M 409.991,537.206 454.996,563.189 454.996,589.173 432.493,602.164 409.991,589.173 Z" />
<path d="M 500,563.189 500,615.156 454.996,589.173 454.996,563.189 477.498,550.198 Z" />
<path d="M 94.959,173.439 117.462,160.447 162.466,186.431 117.462,212.414 94.959,199.422 Z" />
<path d="M 94.959,199.422 117.462,212.414 117.462,238.397 94.959,251.389 49.955,225.406 Z" />
<path d="M 27.453,680.115 4.95,667.123 4.95,641.139 27.453,628.148 72.457,654.131 Z" />
<path d="M 117.462,784.048 117.462,758.065 162.466,732.081 162.466,784.048 139.964,797.04 Z" />
<path d="M 94.959,797.04 117.462,784.048 139.964,797.04 139.964,849.006 94.959,823.023 Z" />
<path d="M 139.964,900.973 139.964,849.006 184.969,874.99 184.969,900.973 162.466,913.965 Z" />
<path d="M 162.466,784.048 162.466,732.081 207.471,758.065 207.471,784.048 184.969,797.04 Z" />
<path d="M 162.466,680.115 184.969,667.123 207.471,680.115 207.471,706.098 162.466,732.081 Z" />
<path d="M 207.471,498.231 207.471,550.198 184.969,563.189 162.466,550.198 162.466,524.214 Z" />
<path d="M 409.991,589.173 432.493,602.164 432.493,628.148 387.489,654.131 387.489,602.164 Z" />
<path d="M 500,615.156 545.005,641.139 545.005,667.123 522.502,680.115 500,667.123 Z" />
<path d="M 545.005,641.139 567.507,628.148 590.009,641.139 590.009,693.106 545.005,667.123 Z" />
<path d="M 612.511,576.181 612.511,628.148 590.009,641.139 567.507,628.148 567.507,602.164 Z" />
<path d="M 612.511,628.148 635.014,641.139 635.014,667.123 590.009,693.106 590.009,641.139 Z" />
<path d="M 657.516,680.115 635.014,667.123 635.014,641.139 657.516,628.148 702.52,654.131 Z" />
<path d="M 725.023,719.09 702.52,706.098 702.52,654.131 747.525,680.115 747.525,706.098 Z" />
<path d="M 770.027,667.123 747.525,680.115 702.52,654.131 747.525,628.148 770.027,641.139 Z" />
<path d="M 792.529,732.081 747.525,706.098 747.525,680.115 770.027,667.123 792.529,680.115 Z" />
<path d="M 792.529,680.115 770.027,667.123 770.027,641.139 815.032,615.156 815.032,667.123 Z" />
<path d="M 882.538,602.164 860.036,589.173 860.036,563.189 882.538,550.198 927.543,576.181 Z" />
<path d="M 927.543,524.214 927.543,576.181 882.538,550.198 882.538,524.214 905.041,511.223 Z" />
<path d="M 972.547,602.164 927.543,576.181 972.547,550.198 995.05,563.189 995.05,589.173 Z" />
<path d="M 927.543,758.065 905.041,745.073 905.041,693.106 950.045,719.09 950.045,745.073 Z" />
<path d="M 927.543,784.048 882.538,810.031 882.538,758.065 905.041,745.073 927.543,758.065 Z" />
<path d="M 950.045,719.09 905.041,693.106 950.045,667.123 972.547,680.115 972.547,706.098 Z" />
<path d="M 770.027,900.973 770.027,849.006 815.032,874.99 815.032,900.973 792.529,913.965 Z" />
<path d="M 770.027,797.04 747.525,784.048 747.525,758.065 792.529,732.081 792.529,784.048 Z" />
<path d="M 815.032,823.023 770.027,849.006 770.027,797.04 792.529,784.048 815.032,797.04 Z" />
<path d="M 770.027,849.006 725.023,823.023 725.023,797.04 747.525,784.048 770.027,797.04 Z" />
<path d="M 770.027,900.973 747.525,913.965 725.023,900.973 725.023,874.99 770.027,849.006 Z" />
<path d="M 837.534,861.998 815.032,874.99 770.027,849.006 815.032,823.023 837.534,836.015 Z" />
<path d="M 725.023,874.99 702.52,861.998 702.52,836.015 725.023,823.023 770.027,849.006 Z" />
<path d="M 702.52,836.015 680.018,823.023 680.018,771.056 725.023,797.04 725.023,823.023 Z" />
<path d="M 702.52,861.998 657.516,887.981 657.516,836.015 680.018,823.023 702.52,836.015 Z" />
<path d="M 725.023,900.973 702.52,913.965 657.516,887.981 702.52,861.998 725.023,874.99 Z" />
<path d="M 657.516,887.981 612.511,913.965 590.009,900.973 590.009,874.99 612.511,861.998 Z" />
<path d="M 297.48,30.53 342.484,4.547 364.987,17.539 364.987,43.522 342.484,56.514 Z" />
<path d="M 364.987,43.522 387.489,56.514 387.489,108.481 342.484,82.497 342.484,56.514 Z" />
<path d="M 297.48,30.53 342.484,56.514 342.484,82.497 319.982,95.489 297.48,82.497 Z" />
<path d="M 229.973,17.539 252.475,4.547 297.48,30.53 252.475,56.514 229.973,43.522 Z" />
<path d="M 229.973,43.522 252.475,56.514 252.475,82.497 229.973,95.489 184.969,69.506 Z" />
<path d="M 252.475,82.497 274.978,95.489 274.978,147.456 229.973,121.472 229.973,95.489 Z" />
<path d="M 252.475,56.514 297.48,30.53 297.48,82.497 274.978,95.489 252.475,82.497 Z" />
<path d="M 522.502,861.998 522.502,836.015 567.507,810.031 567.507,861.998 545.005,874.99 Z" />
<path d="M 500,874.99 454.996,849.006 500,823.023 522.502,836.015 522.502,861.998 Z" />
<path d="M 500,823.023 500,797.04 522.502,784.048 567.507,810.031 522.502,836.015 Z" />
<path d="M 454.996,849.006 454.996,797.04 477.498,784.048 500,797.04 500,823.023 Z" />
<path d="M 387.489,861.998 387.489,836.015 409.991,823.023 454.996,849.006 409.991,874.99 Z" />
<path d="M 409.991,900.973 409.991,874.99 454.996,849.006 454.996,900.973 432.493,913.965 Z" />
<path d="M 409.991,900.973 387.489,913.965 342.484,887.981 387.489,861.998 409.991,874.99 Z" />
<path d="M 342.484,887.981 342.484,836.015 364.987,823.023 387.489,836.015 387.489,861.998 Z" />
<path d="M 274.978,874.99 297.48,861.998 342.484,887.981 297.48,913.965 274.978,900.973 Z" />
<path d="M 680.018,43.522 657.516,56.514 612.511,30.53 657.516,4.547 680.018,17.539 Z" />
<path d="M 680.018,43.522 702.52,56.514 702.52,108.481 657.516,82.497 657.516,56.514 Z" />
<path d="M 747.525,56.514 747.525,82.497 702.52,108.481 702.52,56.514 725.023,43.522 Z" />
<path d="M 702.52,108.481 702.52,160.447 680.018,173.439 657.516,160.447 657.516,134.464 Z" />
<path d="M 747.525,134.464 747.525,160.447 725.023,173.439 702.52,160.447 702.52,108.481 Z" />
<path d="M 725.023,173.439 725.023,199.422 680.018,225.406 680.018,173.439 702.52,160.447 Z" />
<path d="M 747.525,160.447 792.529,186.431 747.525,212.414 725.023,199.422 725.023,173.439 Z" />
<path d="M 747.525,238.397 725.023,251.389 680.018,225.406 725.023,199.422 747.525,212.414 Z" />
<path d="M 792.529,238.397 770.027,251.389 747.525,238.397 747.525,212.414 792.529,186.431 Z" />
<path d="M 770.027,251.389 770.027,303.356 725.023,277.372 725.023,251.389 747.525,238.397 Z" />
<path d="M 815.032,251.389 815.032,277.372 770.027,303.356 770.027,251.389 792.529,238.397 Z" />
<path d="M 770.027,355.322 747.525,368.314 725.023,355.322 725.023,329.339 770.027,303.356 Z" />
<path d="M 815.032,355.322 792.529,368.314 770.027,355.322 770.027,303.356 815.032,329.339 Z" />
<path d="M 792.529,368.314 792.529,394.298 747.525,420.281 747.525,368.314 770.027,355.322 Z" />
<path d="M 860.036,381.306 815.032,407.289 792.529,394.298 792.529,368.314 815.032,355.322 Z" />
<path d="M 792.529,446.264 747.525,420.281 792.529,394.298 815.032,407.289 815.032,433.273 Z" />
<path d="M 792.529,446.264 792.529,472.248 770.027,485.239 747.525,472.248 747.525,420.281 Z" />
<path d="M 837.534,498.231 792.529,524.214 770.027,511.223 770.027,485.239 792.529,472.248 Z" />
<path d="M 905.041,511.223 882.538,524.214 837.534,498.231 882.538,472.248 905.041,485.239 Z" />
<path d="M 950.045,511.223 927.543,524.214 905.041,511.223 905.041,485.239 950.045,459.256 Z" />
<path d="M 972.547,524.214 972.547,550.198 927.543,576.181 927.543,524.214 950.045,511.223 Z" />
<path d="M 972.547,524.214 950.045,511.223 950.045,459.256 995.05,485.239 995.05,511.223 Z" />
<path d="M 972.547,394.298 995.05,407.289 995.05,433.273 950.045,459.256 950.045,407.289 Z" />
<path d="M 950.045,407.289 950.045,459.256 905.041,433.273 905.041,407.289 927.543,394.298 Z" />
<path d="M 972.547,394.298 950.045,407.289 927.543,394.298 927.543,368.314 972.547,342.331 Z" />
<path d="M 950.045,277.372 972.547,290.364 972.547,342.331 927.543,316.347 927.543,290.364 Z" />
<path d="M 432.493,420.281 387.489,394.298 387.489,368.314 409.991,355.322 432.493,368.314 Z" />
<path d="M 770.027,43.522 815.032,69.506 770.027,95.489 747.525,82.497 747.525,56.514 Z" />
<path d="M 770.027,95.489 770.027,121.472 747.525,134.464 702.52,108.481 747.525,82.497 Z" />
<path d="M 770.027,121.472 792.529,134.464 792.529,186.431 747.525,160.447 747.525,134.464 Z" />
<path d="M 837.534,238.397 815.032,251.389 792.529,238.397 792.529,186.431 837.534,212.414 Z" />
<path d="M 882.538,264.381 837.534,290.364 815.032,277.372 815.032,251.389 837.534,238.397 Z" />
<path d="M 837.534,316.347 815.032,329.339 770.027,303.356 815.032,277.372 837.534,290.364 Z" />
<path d="M 950.045,277.372 927.543,290.364 882.538,264.381 927.543,238.397 950.045,251.389 Z" />
<path d="M 545.005,17.539 567.507,4.547 612.511,30.53 567.507,56.514 545.005,43.522 Z" />
<path d="M 567.507,56.514 567.507,82.497 545.005,95.489 500,69.506 545.005,43.522 Z" />
<path d="M 612.511,30.53 612.511,82.497 590.009,95.489 567.507,82.497 567.507,56.514 Z" />
<path d="M 635.014,173.439 635.014,199.422 612.511,212.414 590.009,199.422 590.009,147.456 Z" />
<path d="M 635.014,95.489 635.014,121.472 590.009,147.456 590.009,95.489 612.511,82.497 Z" />
<path d="M 567.507,82.497 590.009,95.489 590.009,147.456 545.005,121.472 545.005,95.489 Z" />
<path d="M 657.516,56.514 657.516,82.497 635.014,95.489 612.511,82.497 612.511,30.53 Z" />
<path d="M 49.955,511.223 94.959,537.206 49.955,563.189 27.453,550.198 27.453,524.214 Z" />
<path d="M 94.959,537.206 139.964,511.223 162.466,524.214 162.466,550.198 139.964,563.189 Z" />
<path d="M 229.973,433.273 252.475,446.264 252.475,472.248 207.471,498.231 207.471,446.264 Z" />
<path d="M 252.475,446.264 274.978,433.273 319.982,459.256 274.978,485.239 252.475,472.248 Z" />
<path d="M 229.973,433.273 229.973,381.306 274.978,407.289 274.978,433.273 252.475,446.264 Z" />
<path d="M 229.973,433.273 207.471,446.264 184.969,433.273 184.969,407.289 229.973,381.306 Z" />
<path d="M 274.978,329.339 274.978,355.322 229.973,381.306 229.973,329.339 252.475,316.347 Z" />
<path d="M 229.973,381.306 184.969,355.322 184.969,329.339 207.471,316.347 229.973,329.339 Z" />
<path d="M 207.471,290.364 252.475,264.381 252.475,316.347 229.973,329.339 207.471,316.347 Z" />
<path d="M 297.48,290.364 297.48,316.347 274.978,329.339 252.475,316.347 252.475,264.381 Z" />
<path d="M 274.978,199.422 297.48,212.414 297.48,238.397 252.475,264.381 252.475,212.414 Z" />
<path d="M 229.973,199.422 252.475,212.414 252.475,264.381 207.471,238.397 207.471,212.414 Z" />
<path d="M 229.973,173.439 274.978,147.456 274.978,199.422 252.475,212.414 229.973,199.422 Z" />
<path d="M 274.978,147.456 319.982,173.439 319.982,199.422 297.48,212.414 274.978,199.422 Z" />
<path d="M 297.48,82.497 319.982,95.489 319.982,121.472 274.978,147.456 274.978,95.489 Z" />
<path d="M 207.471,160.447 229.973,173.439 229.973,199.422 207.471,212.414 162.466,186.431 Z" />
<path d="M 207.471,134.464 229.973,121.472 274.978,147.456 229.973,173.439 207.471,160.447 Z" />
<path d="M 72.457,290.364 94.959,277.372 139.964,303.356 94.959,329.339 72.457,316.347 Z" />
<path d="M 72.457,316.347 94.959,329.339 94.959,355.322 72.457,368.314 27.453,342.331 Z" />
<path d="M 387.489,446.264 387.489,472.248 364.987,485.239 319.982,459.256 364.987,433.273 Z" />
<path d="M 49.955,511.223 49.955,485.239 72.457,472.248 94.959,485.239 94.959,537.206 Z" />
<path d="M 162.466,732.081 207.471,706.098 229.973,719.09 229.973,745.073 207.471,758.065 Z" />
<path d="M 207.471,680.115 229.973,667.123 274.978,693.106 229.973,719.09 207.471,706.098 Z" />
<path d="M 274.978,874.99 252.475,861.998 252.475,810.031 297.48,836.015 297.48,861.998 Z" />
<path d="M 297.48,861.998 297.48,836.015 319.982,823.023 342.484,836.015 342.484,887.981 Z" />
<path d="M 432.493,368.314 409.991,355.322 409.991,329.339 454.996,303.356 454.996,355.322 Z" />
<path d="M 342.484,680.115 387.489,654.131 387.489,706.098 364.987,719.09 342.484,706.098 Z" />
<path d="M 409.991,719.09 409.991,745.073 364.987,771.056 364.987,719.09 387.489,706.098 Z" />
<path d="M 319.982,745.073 319.982,719.09 342.484,706.098 364.987,719.09 364.987,771.056 Z" />
<path d="M 319.982,823.023 319.982,797.04 364.987,771.056 364.987,823.023 342.484,836.015 Z" />
<path d="M 387.489,836.015 364.987,823.023 364.987,771.056 409.991,797.04 409.991,823.023 Z" />
<path d="M 454.996,900.973 454.996,849.006 500,874.99 500,900.973 477.498,913.965 Z" />
<path d="M 657.516,706.098 657.516,680.115 702.52,654.131 702.52,706.098 680.018,719.09 Z" />
<path d="M 725.023,745.073 680.018,771.056 680.018,719.09 702.52,706.098 725.023,719.09 Z" />
<path d="M 657.516,706.098 680.018,719.09 680.018,771.056 635.014,745.073 635.014,719.09 Z" />
<path d="M 657.516,836.015 635.014,823.023 635.014,797.04 680.018,771.056 680.018,823.023 Z" />
<path d="M 657.516,887.981 612.511,861.998 612.511,836.015 635.014,823.023 657.516,836.015 Z" />
<path d="M 927.543,394.298 905.041,407.289 860.036,381.306 905.041,355.322 927.543,368.314 Z" />
<path d="M 972.547,342.331 927.543,368.314 905.041,355.322 905.041,329.339 927.543,316.347 Z" />
<path d="M 950.045,459.256 905.041,485.239 882.538,472.248 882.538,446.264 905.041,433.273 Z" />
<path d="M 635.014,511.223 657.516,524.214 657.516,550.198 612.511,576.181 612.511,524.214 Z" />
<path d="M 725.023,537.206 725.023,485.239 747.525,472.248 770.027,485.239 770.027,511.223 Z" />
<path d="M 590.009,874.99 567.507,861.998 567.507,810.031 612.511,836.015 612.511,861.998 Z" />
<path d="M 184.969,251.389 207.471,238.397 252.475,264.381 207.471,290.364 184.969,277.372 Z" />
<path d="M 184.969,277.372 207.471,290.364 207.471,316.347 184.969,329.339 139.964,303.356 Z" />
<path d="M 117.462,420.281 162.466,394.298 184.969,407.289 184.969,433.273 162.466,446.264 Z" />
<path d="M 229.973,381.306 184.969,407.289 162.466,394.298 162.466,368.314 184.969,355.322 Z" />
<path d="M 207.471,758.065 229.973,745.073 252.475,758.065 252.475,810.031 207.471,784.048 Z" />
<path d="M 229.973,745.073 229.973,719.09 274.978,693.106 274.978,745.073 252.475,758.065 Z" />
<path d="M 297.48,836.015 252.475,810.031 297.48,784.048 319.982,797.04 319.982,823.023 Z" />
<path d="M 252.475,810.031 252.475,758.065 274.978,745.073 297.48,758.065 297.48,784.048 Z" />
<path d="M 297.48,784.048 297.48,758.065 319.982,745.073 364.987,771.056 319.982,797.04 Z" />
<path d="M 297.48,758.065 274.978,745.073 274.978,693.106 319.982,719.09 319.982,745.073 Z" />
<path d="M 319.982,667.123 342.484,680.115 342.484,706.098 319.982,719.09 274.978,693.106 Z" />
<path d="M 409.991,823.023 409.991,797.04 432.493,784.048 454.996,797.04 454.996,849.006 Z" />
<path d="M 477.498,732.081 477.498,784.048 454.996,797.04 432.493,784.048 432.493,758.065 Z" />
<path d="M 477.498,732.081 522.502,758.065 522.502,784.048 500,797.04 477.498,784.048 Z" />
<path d="M 477.498,732.081 477.498,680.115 500,667.123 522.502,680.115 522.502,706.098 Z" />
<path d="M 657.516,82.497 702.52,108.481 657.516,134.464 635.014,121.472 635.014,95.489 Z" />
<path d="M 657.516,134.464 657.516,160.447 635.014,173.439 590.009,147.456 635.014,121.472 Z" />
<path d="M 747.525,758.065 725.023,745.073 725.023,719.09 747.525,706.098 792.529,732.081 Z" />
<path d="M 747.525,784.048 725.023,797.04 680.018,771.056 725.023,745.073 747.525,758.065 Z" />
<path d="M 364.987,433.273 319.982,459.256 319.982,407.289 342.484,394.298 364.987,407.289 Z" />
<path d="M 319.982,459.256 274.978,433.273 274.978,407.289 297.48,394.298 319.982,407.289 Z" />
<path d="M 319.982,407.289 297.48,394.298 297.48,368.314 342.484,342.331 342.484,394.298 Z" />
<path d="M 387.489,394.298 364.987,407.289 342.484,394.298 342.484,342.331 387.489,368.314 Z" />
<path d="M 342.484,342.331 342.484,290.364 364.987,277.372 387.489,290.364 387.489,316.347 Z" />
<path d="M 319.982,277.372 342.484,290.364 342.484,342.331 297.48,316.347 297.48,290.364 Z" />
<path d="M 319.982,251.389 364.987,225.406 364.987,277.372 342.484,290.364 319.982,277.372 Z" />
<path d="M 409.991,277.372 387.489,290.364 364.987,277.372 364.987,225.406 409.991,251.389 Z" />
<path d="M 409.991,199.422 364.987,225.406 364.987,173.439 387.489,160.447 409.991,173.439 Z" />
<path d="M 342.484,160.447 364.987,173.439 364.987,225.406 319.982,199.422 319.982,173.439 Z" />
<path d="M 342.484,134.464 387.489,108.481 387.489,160.447 364.987,173.439 342.484,160.447 Z" />
<path d="M 432.493,134.464 432.493,160.447 409.991,173.439 387.489,160.447 387.489,108.481 Z" />
<path d="M 319.982,95.489 342.484,82.497 387.489,108.481 342.484,134.464 319.982,121.472 Z" />
<path d="M 319.982,121.472 342.484,134.464 342.484,160.447 319.982,173.439 274.978,147.456 Z" />
<path d="M 635.014,823.023 612.511,836.015 567.507,810.031 612.511,784.048 635.014,797.04 Z" />
<path d="M 522.502,784.048 522.502,758.065 545.005,745.073 567.507,758.065 567.507,810.031 Z" />
<path d="M 477.498,732.081 522.502,706.098 545.005,719.09 545.005,745.073 522.502,758.065 Z" />
<path d="M 545.005,719.09 590.009,693.106 590.009,745.073 567.507,758.065 545.005,745.073 Z" />
<path d="M 522.502,706.098 522.502,680.115 545.005,667.123 590.009,693.106 545.005,719.09 Z" />
<path d="M 612.511,784.048 567.507,810.031 567.507,758.065 590.009,745.073 612.511,758.065 Z" />
<path d="M 635.014,719.09 635.014,745.073 612.511,758.065 590.009,745.073 590.009,693.106 Z" />
<path d="M 657.516,706.098 635.014,719.09 590.009,693.106 635.014,667.123 657.516,680.115 Z" />
<path d="M 635.014,797.04 612.511,784.048 612.511,758.065 635.014,745.073 680.018,771.056 Z" />
<path d="M 657.516,160.447 680.018,173.439 680.018,225.406 635.014,199.422 635.014,173.439 Z" />
<path d="M 319.982,251.389 319.982,277.372 297.48,290.364 252.475,264.381 297.48,238.397 Z" />
<path d="M 319.982,251.389 297.48,238.397 297.48,212.414 319.982,199.422 364.987,225.406 Z" />
<path d="M 409.991,797.04 364.987,771.056 409.991,745.073 432.493,758.065 432.493,784.048 Z" />
<path d="M 409.991,719.09 432.493,706.098 477.498,732.081 432.493,758.065 409.991,745.073 Z" />
<path d="M 657.516,290.364 635.014,277.372 635.014,251.389 680.018,225.406 680.018,277.372 Z" />
<path d="M 725.023,277.372 702.52,290.364 680.018,277.372 680.018,225.406 725.023,251.389 Z" />
<path d="M 657.516,342.331 657.516,290.364 680.018,277.372 702.52,290.364 702.52,316.347 Z" />
<path d="M 770.027,303.356 725.023,329.339 702.52,316.347 702.52,290.364 725.023,277.372 Z" />
<path d="M 657.516,342.331 702.52,316.347 725.023,329.339 725.023,355.322 702.52,368.314 Z" />
<path d="M 477.498,186.431 432.493,212.414 409.991,199.422 409.991,173.439 432.493,160.447 Z" />
<path d="M 274.978,355.322 297.48,368.314 297.48,394.298 274.978,407.289 229.973,381.306 Z" />
<path d="M 274.978,329.339 297.48,316.347 342.484,342.331 297.48,368.314 274.978,355.322 Z" />
<path d="M 635.014,199.422 680.018,225.406 635.014,251.389 612.511,238.397 612.511,212.414 Z" />
<path d="M 567.507,264.381 612.511,238.397 635.014,251.389 635.014,277.372 612.511,290.364 Z" />
<path d="M 432.493,212.414 432.493,238.397 409.991,251.389 364.987,225.406 409.991,199.422 Z" />
<path d="M 454.996,303.356 409.991,277.372 409.991,251.389 432.493,238.397 454.996,251.389 Z" />
<path d="M 657.516,342.331 612.511,316.347 612.511,290.364 635.014,277.372 657.516,290.364 Z" />
<path d="M 657.516,342.331 702.52,368.314 702.52,394.298 680.018,407.289 657.516,394.298 Z" />
<path d="M 635.014,459.256 635.014,407.289 657.516,394.298 680.018,407.289 680.018,433.273 Z" />
<path d="M 680.018,433.273 680.018,407.289 702.52,394.298 747.525,420.281 702.52,446.264 Z" />
<path d="M 702.52,446.264 747.525,420.281 747.525,472.248 725.023,485.239 702.52,472.248 Z" />
<path d="M 702.52,368.314 725.023,355.322 747.525,368.314 747.525,420.281 702.52,394.298 Z" />
<path d="M 387.489,368.314 342.484,342.331 387.489,316.347 409.991,329.339 409.991,355.322 Z" />
<path d="M 454.996,303.356 409.991,329.339 387.489,316.347 387.489,290.364 409.991,277.372 Z" />
</g>
</svg>
