<?xml version="1.0" ?>
<svg width="400" height="500" viewBox="100 -200 500 500" xmlns="http://www.w3.org/2000/svg">
<path class="stroke" d="M 75.8974,163.397 C 123.038,116.257 128.757,210.538 175.897,163.397 C 128.757,116.257 223.038,110.538 175.897,63.3975 C 193.152,-0.997578 245.245,77.7926 262.5,13.3975 C 326.895,30.6521 248.105,82.7454 312.5,100 C 329.755,164.395 245.245,122.208 262.5,186.603 C 326.895,169.348 284.708,253.857 349.103,236.603 C 396.243,283.743 301.962,289.462 349.103,336.603 C 396.243,383.743 301.962,389.462 349.103,436.603 C 331.848,500.998 279.755,422.208 262.5,486.603 C 198.105,469.348 276.895,417.255 212.5,400 C 165.36,447.14 159.64,352.86 112.5,400 C 65.3596,352.86 159.64,347.14 112.5,300 C 48.105,317.255 90.2925,232.745 25.8975,250 C 8.64282,185.605 93.1521,227.792 75.8974,163.397" stroke="#000000" stroke-width="12" fill="#FFFFFF" transform="rotate(-60)"/>
</svg>
